Coordinates
version=1
nRows=65
nColumns=12
inDegrees=yes

Units are S.I. units (second, meters, Newtons, ...)
Angles are in degrees

endheader
time	SC_y	SC_z	SC_x	AC_y	AC_z	AC_x	GH_y	GH_z	GH_yy	EL_x	PS_y
       0.0              -20.48          3.057          13.73          59.75         -4.144         -18.02         -131.5          86.42          70.38          137.6          157.3
   0.02138              -20.48          3.057          13.73          59.75         -4.142         -18.02         -131.5          86.41          70.35          137.6          157.3
   0.04277              -20.48          3.057          13.72          59.75          -4.14         -18.02         -131.5           86.4          70.32          137.5          157.3
   0.06415              -20.48          3.057          13.72          59.74         -4.138         -18.02         -131.5          86.38          70.29          137.5          157.3
   0.08554              -20.48          3.057          13.72          59.74         -4.136         -18.02         -131.4          86.37          70.26          137.5          157.3
    0.1069              -20.48          3.057          13.72          59.74         -4.134         -18.02         -131.4          86.36          70.23          137.5          157.3
    0.1283              -20.48          3.057          13.72          59.74         -4.131         -18.02         -131.4          86.34          70.19          137.5          157.3
    0.1497              -20.48          3.057          13.72          59.73         -4.128         -18.01         -131.4          86.32          70.15          137.4          157.3
    0.1711              -20.48          3.057          13.72          59.73         -4.125         -18.01         -131.4           86.3          70.11          137.4          157.3
    0.1925              -20.48          3.057          13.72          59.73         -4.122         -18.01         -131.3          86.28          70.06          137.4          157.3
    0.2138              -20.49          3.057          13.71          59.72         -4.119         -18.01         -131.3          86.26          70.02          137.4          157.3
    0.2352              -20.49          3.057          13.71          59.72         -4.115         -18.01         -131.3          86.24          69.97          137.3          157.3
    0.2566              -20.49          3.057          13.71          59.71         -4.112          -18.0         -131.2          86.22          69.91          137.3          157.3
     0.278              -20.49          3.056          13.71          59.71         -4.107          -18.0         -131.2          86.19          69.85          137.3          157.2
    0.2994              -20.49          3.056          13.71           59.7         -4.103          -18.0         -131.2          86.16          69.78          137.2          157.2
    0.3208              -20.49          3.056           13.7           59.7         -4.098          -18.0         -131.1          86.13          69.71          137.2          157.2
    0.3421               -20.5          3.056           13.7          59.69         -4.093         -17.99         -131.1           86.1          69.64          137.2          157.2
    0.3635               -20.5          3.056           13.7          59.69         -4.087         -17.99         -131.0          86.06          69.55          137.1          157.2
    0.3849               -20.5          3.056           13.7          59.68         -4.081         -17.99         -131.0          86.02          69.46          137.1          157.2
    0.4063               -20.5          3.056          13.69          59.67         -4.074         -17.98         -130.9          85.98          69.36          137.0          157.2
    0.4277              -20.51          3.055          13.69          59.67         -4.066         -17.98         -130.9          85.93          69.25          137.0          157.2
    0.4491              -20.51          3.055          13.68          59.66         -4.058         -17.97         -130.8          85.88          69.13          136.9          157.1
    0.4705              -20.51          3.055          13.68          59.65         -4.049         -17.97         -130.7          85.82           69.0          136.8          157.1
    0.4918              -20.52          3.055          13.67          59.64         -4.038         -17.96         -130.6          85.76          68.85          136.7          157.1
    0.5132              -20.52          3.055          13.67          59.62         -4.027         -17.95         -130.5          85.69          68.69          136.7          157.1
    0.5346              -20.53          3.054          13.66          59.61         -4.014         -17.95         -130.4          85.61           68.5          136.6          157.0
     0.556              -20.53          3.054          13.66          59.59           -4.0         -17.94         -130.3          85.52           68.3          136.4          157.0
    0.5774              -20.54          3.053          13.65          59.58         -3.984         -17.93         -130.2          85.42          68.07          136.3          157.0
    0.5988              -20.55          3.053          13.64          59.56         -3.966         -17.92         -130.0           85.3          67.81          136.2          156.9
    0.6201              -20.56          3.053          13.63          59.54         -3.945          -17.9         -129.9          85.17          67.51          136.0          156.9
    0.6415              -20.57          3.052          13.62          59.51         -3.922         -17.89         -129.7          85.03          67.17          135.8          156.9
    0.6629              -20.58          3.051           13.6          59.48         -3.895         -17.87         -129.5          84.86          66.79          135.6          156.8
    0.6843              -20.59          3.051          13.59          59.45         -3.864         -17.85         -129.2          84.66          66.34          135.4          156.7
    0.7057               -20.6           3.05          13.57          59.41         -3.828         -17.83         -128.9          84.44          65.82          135.1          156.7
    0.7271              -20.62          3.049          13.55          59.36         -3.786         -17.81         -128.6          84.17          65.21          134.8          156.6
    0.7484              -20.64          3.047          13.53          59.31         -3.736         -17.78         -128.2          83.86          64.49          134.4          156.5
    0.7698              -20.67          3.046           13.5          59.25         -3.677         -17.74         -127.7          83.49          63.64          133.9          156.3
    0.7912               -20.7          3.044          13.46          59.17         -3.606          -17.7         -127.1          83.05          62.62          133.4          156.2
    0.8126              -20.73          3.042          13.42          59.08          -3.52         -17.65         -126.4          82.51          61.38          132.7          156.0
     0.834              -20.77           3.04          13.37          58.97         -3.416         -17.58         -125.5          81.85          59.87          131.9          155.8
    0.8554              -20.83          3.037          13.31          58.83         -3.286         -17.51         -124.5          81.04           58.0          130.9          155.5
    0.8768              -20.89          3.033          13.23          58.65         -3.125         -17.41         -123.1          80.03          55.68          129.6          155.2
    0.8981              -20.97          3.028          13.13          58.44         -2.922         -17.29         -121.5          78.76          52.75          128.0          154.7
    0.9195              -21.08          3.022           13.0          58.16         -2.664         -17.13         -119.4          77.14          49.03          126.0          154.2
    0.9409              -21.22          3.014          12.84           57.8         -2.334         -16.93         -116.6          75.06          44.26          123.4          153.5
    0.9623              -21.39          3.003          12.63          57.35          -1.91         -16.67         -113.2           72.4          38.14          120.1          152.6
    0.9837              -21.61           2.99          12.37          56.77         -1.368         -16.35         -108.7          69.01          30.33          115.8          151.5
     1.005              -21.89          2.974          12.04          56.03        -0.6875         -15.94         -103.1          64.74          20.51          110.5          150.0
     1.026              -22.23          2.954          11.63          55.14         0.1423         -15.43          -96.3          59.53          8.535          104.0          148.3
     1.048              -22.62          2.931          11.16          54.11          1.104         -14.85         -88.41           53.5         -5.341          96.48          146.3
     1.069              -23.05          2.906          10.65          52.99          2.145         -14.22         -79.85          46.96         -20.37          88.33          144.1
     1.091              -23.47          2.881          10.14          51.87          3.187          -13.6          -71.3          40.43         -35.39          80.18          141.9
     1.112              -23.87          2.857           9.67          50.84          4.149         -13.02          -63.4           34.4         -49.27          72.65          139.8
     1.133               -24.2          2.837          9.264          49.94          4.978         -12.51         -56.58          29.19         -61.24          66.15          138.1
     1.155              -24.48          2.821          8.931          49.21          5.659          -12.1         -50.99          24.92         -71.06          60.82          136.7
     1.176               -24.7          2.808          8.666          48.63          6.201         -11.78         -46.54          21.52         -78.87          56.58          135.5
     1.198              -24.88          2.798          8.458          48.17          6.625         -11.52         -43.06          18.86         -84.99          53.26          134.6
     1.219              -25.01           2.79          8.297          47.82          6.955         -11.32         -40.35          16.79         -89.76          50.68          133.9
      1.24              -25.12          2.783           8.17          47.54          7.213         -11.16         -38.23          15.17         -93.48          48.66          133.4
     1.262               -25.2          2.779          8.071          47.32          7.416         -11.04         -36.56           13.9         -96.41          47.07          133.0
     1.283              -25.27          2.775          7.992          47.15          7.577         -10.94         -35.24          12.88         -98.74          45.81          132.6
     1.304              -25.32          2.772          7.929          47.01          7.707         -10.87         -34.17          12.07         -100.6           44.8          132.4
     1.326              -25.36          2.769          7.878           46.9          7.811          -10.8         -33.31          11.42         -102.1          43.98          132.1
     1.347               -25.4          2.767          7.836          46.81          7.897         -10.75         -32.61          10.88         -103.3           43.3          131.9
     1.369              -25.43          2.765          7.801          46.73          7.968         -10.71         -32.03          10.43         -104.4          42.75          131.8
